<svg width="723" height="692" viewBox="0 0 723 692" fill="none" xmlns="http://www.w3.org/2000/svg">
<path d="M620.944 463.961C596.909 500.42 555.7 521.85 512.032 521.85H149.591C76.741 521.85 35.89 436.674 83.136 388.712C130.381 340.749 88.6504 299.785 161.524 261.325C232.124 224.063 256.228 303.488 321.266 251.518C386.306 199.55 480.995 204.452 501.799 257.402C522.602 310.352 517.701 328.986 561.825 340.752C605.95 352.516 649.094 419.194 622.619 461.358C622.068 462.236 621.509 463.104 620.944 463.961Z" fill="#CBD5FC"/>
<path d="M604.831 478.742C566.649 481.98 540.91 553.55 445.461 510.532C445.461 510.532 455.942 479.289 502.893 459.813C549.842 440.338 604.831 478.742 604.831 478.742Z" fill="#C8DDF5"/>
<path d="M458.496 505.173C468.461 499.992 478.797 495.525 489.353 491.64C491.979 490.631 494.642 489.723 497.314 488.838C499.974 487.917 502.668 487.101 505.358 486.269C508.038 485.405 510.767 484.704 513.486 483.966C514.846 483.604 516.202 483.22 517.569 482.877L521.679 481.891L525.8 480.946L529.95 480.129L534.101 479.314C535.485 479.049 536.882 478.843 538.276 478.63C541.068 478.219 543.848 477.75 546.66 477.482C549.468 477.19 552.26 476.785 555.085 476.68C566.329 475.864 577.699 476.048 588.786 477.925C577.555 477.653 566.42 478.318 555.377 479.679L553.304 479.914L551.242 480.231L547.113 480.834C544.357 481.187 541.627 481.74 538.891 482.235C537.526 482.502 536.149 482.694 534.786 482.978L530.701 483.825L526.617 484.675L522.557 485.648L518.488 486.578C517.134 486.902 515.791 487.269 514.442 487.611L510.397 488.657C509.047 488.999 507.718 489.417 506.37 489.771C503.682 490.508 500.99 491.229 498.327 492.058C495.66 492.869 492.975 493.629 490.318 494.482C479.659 497.802 469.095 501.458 458.496 505.173Z" fill="#ACBED3"/>
<path d="M609.504 356.944C562.916 390.246 584.467 501.848 428.996 519.421C428.996 519.421 418.617 471.276 464.08 410.423C509.543 349.569 609.504 356.944 609.504 356.944Z" fill="#6C83DC"/>
<path d="M439.34 505.974C446.121 491.284 454.49 477.312 463.906 464.087C473.294 450.834 483.821 438.363 495.286 426.813C506.766 415.286 519.204 404.654 532.664 395.477C546.082 386.303 560.558 378.409 575.999 373.49C561.668 381.005 548.389 389.937 535.776 399.733C523.211 409.583 511.329 420.266 500.073 431.58C488.807 442.892 478.192 454.848 468.088 467.263C458.017 479.712 448.55 492.671 439.34 505.974Z" fill="#C8DDF5"/>
<path d="M106.941 468.794C144.801 474.714 165.435 547.919 263.677 511.728C263.677 511.728 255.422 479.824 209.96 457.092C164.497 434.359 106.941 468.794 106.941 468.794Z" fill="#C8DDF5"/>
<path d="M251.051 505.465C240.74 501.014 230.46 496.623 220.061 492.559C217.47 491.522 214.846 490.575 212.243 489.578C209.645 488.563 207.008 487.655 204.381 486.731C203.061 486.283 201.765 485.772 200.442 485.336L196.481 484.008C195.16 483.571 193.845 483.111 192.518 482.692L188.525 481.477L184.543 480.221L180.528 479.086L176.513 477.952C175.174 477.573 173.814 477.285 172.472 476.922C169.777 476.236 167.093 475.492 164.368 474.946L160.292 474.054L158.256 473.592L156.207 473.213C145.286 471.076 134.225 469.629 123.004 469.109C134.195 468.02 145.55 468.635 156.709 470.241C159.519 470.545 162.276 471.145 165.056 471.635C167.842 472.101 170.583 472.764 173.338 473.371C174.714 473.68 176.092 473.984 177.455 474.346L181.537 475.452L185.62 476.559L189.664 477.791L193.695 479.065C195.034 479.502 196.359 479.982 197.691 480.438C200.352 481.365 203.023 482.259 205.637 483.308C208.262 484.328 210.892 485.331 213.48 486.438C216.082 487.508 218.675 488.601 221.224 489.793C231.48 494.412 241.476 499.595 251.051 505.465Z" fill="#ACBED3"/>
<path d="M132.109 351.819C174.061 386.519 146.151 490.912 292.414 517.985C292.414 517.985 305.479 473.024 266.44 412.27C227.4 351.516 132.109 351.819 132.109 351.819Z" fill="#6C83DC"/>
<path d="M283.502 504.542C275.597 491.338 267.458 478.439 258.723 465.977C249.952 453.545 240.683 441.508 230.762 430.033C220.85 418.555 210.31 407.629 199.076 397.431C187.793 387.284 175.829 377.9 162.773 369.753C177.118 375.39 190.349 383.821 202.48 393.406C214.655 402.995 225.752 413.909 235.872 425.617C245.976 437.342 255.121 449.887 263.118 463.102C271.145 476.292 278.117 490.125 283.502 504.542Z" fill="#C8DDF5"/>
<path d="M378.819 449.003C373.567 455.24 368.808 465.579 365.854 467.221C362.9 468.862 357.919 469.432 353.211 484.584C348.504 499.734 372.268 497.66 372.268 497.66C372.268 497.66 382.43 491.824 386.533 477.725L396.708 468.698L378.819 449.003Z" fill="#FFA498"/>
<path d="M360.435 495.999C360.435 495.999 368.127 493.494 374.651 486.604C381.2 479.687 382.044 467.38 382.044 467.38L385.18 473.241L391.454 466.536L394.478 466.244L396.708 468.698L386.532 477.725C382.429 491.824 372.268 497.661 372.268 497.661C372.268 497.661 365.717 498.228 360.176 496.578C360.318 496.22 360.435 495.999 360.435 495.999Z" fill="#C57E75"/>
<path d="M414.448 394.738C407.169 400.06 402.826 403.921 399.207 411.159C395.587 418.398 372.905 444.404 371.458 446.724C370.009 449.043 384.205 473.655 395.566 479.687C395.566 479.687 412.719 459.9 422.612 452.421C432.505 444.94 429.128 418.398 424.543 409.47C419.958 400.542 414.448 394.738 414.448 394.738Z" fill="#DC466F"/>
<path d="M414.181 442.63V427.856C414.181 427.856 416.106 427.085 417.609 432.071C418.208 434.066 418.163 436.164 417.895 437.969L428.939 429.664C429.395 438.961 427.903 448.419 422.61 452.421C412.717 459.9 395.565 479.687 395.565 479.687C392.633 478.131 389.514 475.334 386.523 472.006C393.508 465.052 406.759 451.628 414.181 442.63Z" fill="#D12050"/>
<path d="M343.62 491.824C341.731 492.414 340.336 493.317 340.336 495.696C340.336 498.076 340.746 501.851 341.649 503.327C342.552 504.805 347.212 505.69 347.212 505.69C347.212 505.69 346.901 495.86 345.916 494.055C344.931 492.249 343.62 491.824 343.62 491.824Z" fill="#FFA498"/>
<path d="M341.646 503.328C341.393 502.913 341.181 502.306 341.004 501.609C342.015 502.603 342.355 502.611 343.593 502.741L347.132 503.845C347.186 504.951 347.21 505.691 347.21 505.691C347.21 505.691 342.549 504.805 341.646 503.328" fill="#C57E75"/>
<path d="M348.128 488.229C345.83 488.475 343.532 490.199 343.532 492.578C343.532 494.957 342.713 501.605 343.532 502.672C344.354 503.738 348.375 506.774 349.769 507.021C351.164 507.267 353.534 506.856 353.21 506.117C352.888 505.38 348.128 488.229 348.128 488.229Z" fill="#FFA498"/>
<path d="M343.188 500.885C344.929 502.852 349.384 502.675 349.384 502.675C349.384 502.675 351.342 504.766 351.584 505.438C351.729 505.843 352.531 506.377 352.64 506.791C351.905 507.071 350.647 507.176 349.773 507.022C348.404 506.779 344.521 503.861 343.596 502.742L343.188 500.89V500.885Z" fill="#C57E75"/>
<path d="M356.74 484.303C349.69 484.701 348.377 485.357 348.131 488.229C347.884 491.101 348.049 499.471 348.95 501.606C349.854 503.738 350.346 505.626 351.495 506.774C352.644 507.923 354.363 507.928 354.363 507.928C354.363 507.928 358.224 502.262 358.388 497.502C358.552 492.743 356.74 484.303 356.74 484.303Z" fill="#FFA498"/>
<path d="M352.685 503.212C353.043 501.264 353.836 499.186 353.936 492.663C353.974 490.213 356.246 503.009 355.232 506.521C354.726 507.393 354.363 507.928 354.363 507.928C354.363 507.928 352.645 507.923 351.496 506.774C350.347 505.625 349.855 503.737 348.951 501.605C348.893 501.465 348.838 501.298 348.785 501.11C349.245 502.307 350.706 503.092 352.685 503.212Z" fill="#C57E75"/>
<path d="M372.175 498.733C371.732 502.654 366.595 504.066 366.02 506.035C365.446 508.005 365.856 509.811 364.872 510.302C363.887 510.796 359.784 508.498 359.949 505.873C359.949 505.873 358.881 508.087 356.501 508.498C354.122 508.908 353.547 507.17 353.958 504.551C354.368 501.933 354.286 500.537 354.204 497.42C354.122 494.301 353.383 491.43 354.778 487.982C356.173 484.537 358.061 481.5 361.836 482.075C365.61 482.649 367.908 487.408 369.959 489.05C372.011 490.69 372.667 494.384 372.175 498.733Z" fill="#FFA498"/>
<path d="M359.945 505.872C360.175 500.885 360.435 496.803 360.435 495.999C360.435 495.194 360.175 489.901 362.057 489.58C362.342 489.531 366.48 492.153 366.56 493.922C366.641 495.692 366.56 498.87 365.274 499.774C363.987 500.68 359.945 505.872 359.945 505.872Z" fill="#C57E75"/>
<path d="M530.954 405.368C523.474 395.878 520.9 394.912 513.179 390.409C505.457 385.904 476.18 374.483 470.147 373.035C464.115 371.587 439.786 382.928 431.802 386.547C423.82 390.167 413.661 393.728 411.931 397.256C406.136 409.063 417.611 425.798 417.672 460.867C417.704 479.233 421.889 520.536 421.889 520.536C421.889 520.536 513.822 520.708 515.109 518.776C516.396 516.846 519.614 450.893 521.222 437.38C522.831 423.868 530.954 405.368 530.954 405.368Z" fill="#DC466F"/>
<path d="M412.267 415.744C411.578 413.523 411.169 411.262 410.824 408.993C410.51 406.718 410.262 404.435 410.296 402.11C410.987 404.33 411.397 406.591 411.738 408.861C412.052 411.136 412.299 413.419 412.267 415.744Z" fill="#D12050"/>
<path d="M446.647 401.93C443.095 400.603 434.68 402.911 433.141 403.446C431.603 403.981 434.046 397.406 434.951 396.592C435.855 395.777 437.304 393.881 440.079 394.739C442.854 395.597 445.186 398.773 445.588 399.819C445.99 400.864 446.647 401.93 446.647 401.93Z" fill="#D12050"/>
<path d="M476.242 407.419C474.976 407.359 467.585 403.96 465.817 403.116C464.047 402.271 456.031 401.877 450.648 403.381C450.648 403.381 461.011 396.38 467.043 396.44C473.075 396.501 475.368 398.672 475.85 400.603C476.333 402.533 476.242 407.419 476.242 407.419Z" fill="#D12050"/>
<path d="M436.72 505.747C437.707 504.781 497.747 506.713 498.954 500.439C500.159 494.166 500.99 482.755 500.99 482.755C493.762 486.617 483.269 485.009 483.269 485.009C490.266 482.724 500.401 471.242 500.883 467.864C502.371 457.457 496.81 428.766 496.81 428.766L500.883 420.57L505.65 417.915C505.65 417.915 514.687 422.416 522.414 430.695C521.893 432.987 521.475 435.245 521.221 437.38C519.705 450.12 516.758 509.463 515.348 517.829C496.752 518.515 463.041 519.749 440.485 520.524C429.556 520.55 421.887 520.536 421.887 520.536C421.887 520.536 421.747 515.103 421.418 507.312C427.71 506.945 436.109 506.345 436.72 505.747Z" fill="#D12050"/>
<path d="M448.912 403.678C455.39 402.898 465.802 397.284 469.905 399.215C474.007 401.145 474.971 406.091 475.816 406.936C476.66 407.78 480.28 403.557 480.28 393.183C480.28 382.806 480.598 372.182 472.959 370.739C465.32 369.294 445.534 376.774 441.552 379.79C437.572 382.806 435.882 385.862 434.797 388.798C433.71 391.734 430.815 403.557 432.142 403.678C433.469 403.8 437.209 396.078 439.984 395.836C442.759 395.595 447.158 403.89 448.912 403.678Z" fill="#DC466F"/>
<path d="M445.227 394.39C443.575 390.469 441.766 387.03 441.826 384.316C441.887 381.6 442.489 379.731 445.506 378.887C448.521 378.042 449.789 379.67 449.97 383.773C450.15 387.874 445.227 394.39 445.227 394.39Z" fill="#D12050"/>
<path d="M468.879 387.079C475.185 381.36 475.899 374.965 475.307 373.638C474.714 372.311 472.11 371.345 472.11 371.345C472.11 371.345 471.085 375.508 471.688 376.534C472.29 377.558 468.879 387.079 468.879 387.079Z" fill="#D12050"/>
<path d="M458.84 400.909C460.376 400.218 461.98 399.681 463.615 399.236C465.258 398.837 466.945 398.518 468.699 398.632C469.564 398.697 470.493 398.886 471.267 399.498C471.95 400.142 472.468 400.724 473.048 401.385C474.197 402.69 474.989 404.274 475.717 405.763C475.877 406.106 476.132 406.51 476.243 406.546C476.257 406.551 476.251 406.572 476.381 406.49C476.49 406.414 476.617 406.282 476.732 406.137C477.203 405.536 477.588 404.785 477.964 404.053C478.723 402.61 479.131 401.008 479.454 399.378C479.768 397.747 479.95 396.082 480.067 394.413C480.21 392.743 480.258 391.065 480.28 389.382C480.612 392.732 480.618 396.125 480.153 399.496C479.928 401.176 479.507 402.873 478.748 404.439C478.374 405.207 477.993 405.966 477.439 406.7C477.292 406.882 477.134 407.065 476.901 407.234C476.789 407.318 476.636 407.397 476.453 407.441C476.262 407.487 476.032 407.456 475.861 407.375C475.515 407.202 475.369 406.97 475.229 406.773C475.096 406.571 474.99 406.373 474.892 406.179C474.162 404.651 473.438 403.191 472.376 401.944C471.868 401.326 471.272 400.645 470.749 400.119C470.202 399.664 469.42 399.438 468.629 399.339C467.023 399.148 465.345 399.371 463.713 399.678C462.067 399.967 460.449 400.415 458.84 400.909Z" fill="#D12050"/>
<path d="M443.985 398.744C443.285 398.125 442.59 397.507 441.832 396.993C441.458 396.736 441.074 396.49 440.679 396.321C440.479 396.245 440.287 396.185 440.107 396.162C440.027 396.171 439.942 396.163 439.879 396.184C439.82 396.222 439.785 396.207 439.671 396.292C438.115 397.251 436.905 398.569 435.877 400.077C435.354 400.805 434.896 401.638 434.28 402.393C433.971 402.767 433.644 403.13 433.227 403.453C433.01 403.603 432.79 403.778 432.401 403.824C432.215 403.856 431.954 403.775 431.797 403.635C431.639 403.492 431.56 403.327 431.514 403.188C431.344 402.616 431.399 402.141 431.444 401.656C431.503 401.181 431.587 400.715 431.695 400.257C431.926 399.343 432.182 398.446 432.509 397.569C432.384 398.495 432.218 399.41 432.142 400.331C432.09 400.789 432.055 401.246 432.048 401.696C432.046 402.134 432.055 402.615 432.187 402.928C432.216 403.007 432.261 403.049 432.276 403.06C432.299 403.058 432.276 403.067 432.322 403.054C432.4 403.046 432.582 402.942 432.729 402.814C433.036 402.553 433.326 402.211 433.591 401.853C434.135 401.152 434.571 400.343 435.117 399.551C435.666 398.775 436.267 398.025 436.964 397.356C437.661 396.689 438.468 396.117 439.301 395.676C439.378 395.623 439.572 395.552 439.73 395.508C439.889 395.477 440.045 395.494 440.194 395.503C440.474 395.56 440.717 395.66 440.942 395.779C441.38 396.027 441.754 396.327 442.112 396.642C442.802 397.294 443.438 397.984 443.985 398.744Z" fill="#D12050"/>
<path d="M444.344 370.822C444.358 373.371 444.46 375.913 444.724 378.449C445.375 384.67 444.738 392.875 445.23 394.389C445.779 396.078 449.036 402.11 449.036 402.11C449.036 402.11 454.827 399.456 457.24 396.561C459.652 393.666 462.789 393.518 467.012 389.248C471.236 384.978 474.106 378.196 473.165 372.551C473.045 371.828 472.304 364.602 472.139 357.122C471.976 349.642 464.116 343.958 456.636 343.958C449.157 343.958 444.678 355.057 444.444 362.538C444.348 365.607 444.331 368.491 444.344 370.822Z" fill="#FFA498"/>
<path d="M472.139 357.122C472.304 364.603 473.044 371.829 473.165 372.552C473.456 374.297 473.381 376.152 473.015 378.006C471.36 378.311 450.058 378.825 444.538 376.255C444.412 374.448 444.355 372.637 444.344 370.822C444.331 368.491 444.348 365.608 444.444 362.539C444.544 359.368 445.408 355.549 446.938 352.198L464.462 345.987C468.764 348.282 472.035 352.328 472.139 357.122Z" fill="#C57E75"/>
<path d="M431.218 325.975C419.899 325.975 415.664 334.67 415.664 341.185C415.664 347.034 417.538 356.396 431.218 356.396C438.058 356.396 442.689 349.586 442.689 341.185C442.689 332.785 438.058 325.975 431.218 325.975Z" fill="#524787"/>
<path d="M430.718 329.7C422.171 329.7 418.973 336.265 418.973 341.186C418.973 345.601 420.387 352.672 430.718 352.672C435.884 352.672 439.38 347.53 439.38 341.186C439.38 334.842 435.884 329.7 430.718 329.7Z" fill="#38295C"/>
<path d="M416.941 331.109C417.609 335.074 419.573 336.591 420.449 341.937C421.326 347.283 418.988 355.053 422.475 361.82C425.963 368.587 431.602 377.483 434.86 377.859C438.118 378.235 464.212 373.827 473.017 356.319C475.544 351.293 480.946 331.585 476.324 319.552C471.701 307.519 464.182 296.492 446.806 296.157C429.43 295.823 413.397 310.089 416.941 331.109Z" fill="#FFA498"/>
<path d="M431.47 352.788C432.399 352.809 433.417 352.455 433.876 351.847C434.277 351.314 434.444 350.612 434.326 349.956C432.967 351.075 431.301 351.267 429.63 350.976C429.423 352.223 430.385 352.762 431.47 352.788Z" fill="#C57E75"/>
<path d="M462.212 331.109C461.55 326.984 458.794 324.603 458.794 324.603C458.794 324.603 452.152 321.845 447.015 321.345C441.876 320.844 436.613 319.34 436.613 319.34C436.613 319.34 438.243 323.465 440.999 325.224C440.999 325.224 428.719 324.603 424.834 320.969C424.834 320.969 425.586 323.964 426.338 325.975C426.338 325.975 420.323 325.354 418.444 322.974C418.444 322.974 416.94 328.216 416.94 331.109C416.94 331.109 409.714 321.219 411.552 313.367C413.389 305.514 415.895 302.506 415.895 302.506C415.895 302.506 410.716 303.007 407.875 302.506C407.875 302.506 414.559 296.658 419.572 292.816C424.584 288.972 439.621 288.806 439.621 288.806C439.621 288.806 438.451 284.796 439.787 278.447C439.787 278.447 446.22 287.887 453.029 290.769C459.838 293.651 458.92 293.407 466.14 295.228C473.359 297.05 480.221 301.671 483.103 305.555C485.985 309.44 489.119 313.45 490.998 314.076C490.998 314.076 486.486 313.45 484.232 311.57C484.232 311.57 487.992 320.113 483.021 331.109C478.05 342.104 465.594 338.851 463.179 336.423C460.765 333.996 462.212 331.109 462.212 331.109Z" fill="#4375F1"/>
<path d="M463.179 336.424C460.765 333.997 462.212 331.109 462.212 331.109C461.813 328.614 460.647 326.762 459.787 325.683C461.595 314.726 460.857 303.352 457.648 292.72C459.524 293.482 460.638 293.824 463.353 294.522C466.687 299.536 469.18 305.178 470.897 310.893C473.083 318.17 474.141 326.032 472.102 333.353C471.58 335.229 470.817 337.06 469.853 338.774C466.762 338.515 464.154 337.404 463.179 336.424Z" fill="#9A4234"/>
<path d="M466.579 327.025C466.579 327.025 467.438 299.541 453.027 290.77C453.027 290.77 464.179 289.517 470.57 300.669C476.961 311.822 476.529 321.387 476.368 326.748C476.207 332.108 466.579 327.025 466.579 327.025Z" fill="#524787"/>
<path d="M470.974 325.975C482.293 325.975 486.529 334.67 486.529 341.185C486.529 347.034 484.654 356.396 470.974 356.396C464.134 356.396 459.504 349.586 459.504 341.185C459.504 332.785 464.134 325.975 470.974 325.975Z" fill="#524787"/>
<path d="M464.871 341.186C464.871 333.729 469.794 327.683 475.867 327.683C481.939 327.683 486.528 333.729 486.528 341.186C486.528 348.644 481.939 354.69 475.867 354.69C469.794 354.69 464.871 348.644 464.871 341.186Z" fill="#C22373"/>
<path d="M469.836 341.185C469.836 336.11 473.185 331.996 477.318 331.996C481.451 331.996 484.801 336.11 484.801 341.185C484.801 346.261 481.451 350.375 477.318 350.375C473.185 350.375 469.836 346.261 469.836 341.185Z" fill="#D67AA8"/>
<path d="M442.284 356.396C439.225 358.08 429.234 358.642 428.555 358.548C427.875 358.455 429.27 366.041 431.717 366.321C434.164 366.603 439.058 365.947 441.097 363.982C443.135 362.018 442.284 356.396 442.284 356.396Z" fill="#C57E75"/>
<path d="M440.934 338.262C440.934 336.878 441.616 335.756 442.458 335.756C443.301 335.756 443.984 336.878 443.984 338.262C443.984 339.646 443.301 340.768 442.458 340.768C441.616 340.768 440.934 339.646 440.934 338.262Z" fill="#471052"/>
<path d="M423.488 339.431C423.488 338.047 424.075 336.925 424.799 336.925C425.523 336.925 426.11 338.047 426.11 339.431C426.11 340.815 425.523 341.937 424.799 341.937C424.075 341.937 423.488 340.815 423.488 339.431Z" fill="#471052"/>
<path d="M449.47 328.491C448.429 327.918 447.306 327.522 446.156 327.191C445 326.881 443.801 326.699 442.584 326.655C441.374 326.595 440.094 326.561 438.923 327.014C437.748 327.419 436.683 328.157 435.898 329.129L435.987 329.279C437.247 329.143 438.286 328.834 439.384 328.688C440.457 328.527 441.498 328.136 442.619 328.045C444.837 327.857 447.163 328.032 449.4 328.65L449.47 328.491Z" fill="#471052"/>
<path d="M419.079 331.73C419.623 331.519 420.195 331.387 420.764 331.322C421.332 331.245 421.9 331.217 422.462 331.211C423.028 331.202 423.592 331.405 424.143 331.27C424.422 331.207 424.707 331.153 424.997 331.032C425.29 330.933 425.589 330.803 425.909 330.579L425.927 330.406C425.382 329.874 424.764 329.646 424.138 329.533C423.505 329.413 422.878 329.668 422.27 329.834C421.659 329.994 421.061 330.207 420.497 330.495C419.945 330.801 419.403 331.122 418.973 331.594L419.079 331.73Z" fill="#471052"/>
<path d="M436.721 511.694C436.729 512.082 436.185 512.643 434.859 512.643H393.013C388.188 512.643 387.062 510.735 388.51 508.322C389.958 505.908 396.071 500.6 411.191 496.9C426.312 493.2 434.263 501.852 436.721 505.747C438.524 508.605 436.721 511.694 436.721 511.694Z" fill="#524787"/>
<path d="M388.151 509.046C388.983 511.813 420.912 510.371 420.912 510.371C420.912 510.371 417.674 505.997 414.096 505.872C410.516 505.747 408.775 506.991 403.976 507.817C399.176 508.642 402.734 505.864 402.734 505.864C402.734 505.864 399.343 505.112 397.963 504.042C397.963 504.042 405.872 501.706 409.19 501.162C412.507 500.62 420.953 500.981 422.038 501.162C422.806 501.29 426.704 499.027 431.412 500.163C434.042 502.084 435.781 504.26 436.719 505.747C438.522 508.604 436.719 511.693 436.719 511.693C436.725 512.081 436.182 512.643 434.856 512.643H393.011C388.681 512.643 387.337 511.104 388.151 509.046Z" fill="#38295C"/>
<path d="M524.722 485.531C524.722 485.531 494.964 490.132 478.835 493.019C463.556 495.753 450.362 496.941 446.623 496.215C442.882 495.492 430.093 490.787 425.991 489.098C421.889 487.409 413.685 486.443 409.463 487.771C405.239 489.098 401.781 490.546 400.092 490.546C398.404 490.546 398.725 493.281 400.977 493.843C403.23 494.406 405.239 494.327 405.239 494.327C405.239 494.327 397.599 498.509 396.231 498.91C394.865 499.312 396.485 501.805 398.334 501.645C398.334 501.645 396.715 502.61 397.277 503.575C397.841 504.54 401.861 504.54 401.861 504.54C401.861 504.54 396.956 506.954 401.057 507.919C405.16 508.883 410.066 504.299 412.077 503.897C414.088 503.494 418.752 503.737 421.005 505.426C423.257 507.114 432.909 514.917 446.099 510.252C446.099 510.252 535.632 513.879 544.559 513.879C553.487 513.879 558.879 505.989 556.016 490.787C553.154 475.585 547.604 464.245 547.604 464.245L516.718 466.416L524.722 485.531Z" fill="#FFA498"/>
<path d="M412.289 491.909C413.077 491.723 413.706 491.615 414.099 491.59C414.099 491.59 413.335 491.722 412.289 491.909Z" fill="#C57E75"/>
<path d="M405.236 494.326C405.236 494.326 403.226 494.406 400.974 493.843C400.34 493.685 399.866 493.352 399.539 492.959C402.044 494.067 405.127 493.36 406.816 492.958C407.881 492.704 410.497 492.227 412.286 491.91C410.494 492.33 407.87 493.152 405.236 494.326Z" fill="#C57E75"/>
<path d="M405.633 497.945C405.826 497.857 405.989 497.789 406.095 497.756C406.095 497.756 405.921 497.826 405.633 497.945Z" fill="#C57E75"/>
<path d="M396.246 500.702C396.275 500.728 397.158 501.507 399.017 500.697C400.566 500.024 404.324 498.481 405.633 497.945C403.986 498.693 399.522 501.213 398.333 501.645C397.511 501.716 396.736 501.263 396.246 500.702Z" fill="#C57E75"/>
<path d="M400.867 503.656C402.234 503.253 405.09 501.523 406.839 500.697C408.588 499.87 410.82 499.775 410.82 499.775C410.82 499.775 410.157 499.835 408.407 500.697C406.659 501.559 401.86 504.54 401.86 504.54C401.86 504.54 399.281 504.539 397.965 504.042C397.979 504.042 399.505 504.056 400.867 503.656" fill="#C57E75"/>
<path d="M426.322 505.626C428.854 507.195 436.335 509.246 440.799 508.402C445.263 507.557 446.228 503.817 446.228 503.817L447.476 507.839C447.476 507.839 509.568 509.609 522.196 509.04C534.679 508.479 554.149 508.195 556.692 500.697C555.994 509.401 551.279 513.879 544.556 513.879C535.628 513.879 446.095 510.252 446.095 510.252C432.905 514.917 423.254 507.114 421.001 505.426C419.129 504.021 415.594 503.619 413.297 503.755H413.298C416.723 502.555 423.788 504.058 426.322 505.626Z" fill="#C57E75"/>
<path d="M524.722 485.531C524.722 485.531 536.355 483.95 538.687 483.709L536.918 476.47L522.199 479.446L524.722 485.531Z" fill="#C57E75"/>
<path d="M555.81 465.268C556.247 466.402 555.969 467.675 555.1 468.523C549.694 473.803 542.595 480.994 535.296 482.1C527.333 483.306 514.061 483.789 513.337 482.1C512.613 480.411 509.96 458.936 505.134 448.078C500.308 437.22 497.171 431.67 495.964 425.396C494.758 419.122 505.616 404.403 510.442 403.196C515.268 401.99 526.368 401.266 530.952 405.369C535.537 409.47 538.915 425.155 544.223 436.979C548.507 446.519 553.89 460.301 555.81 465.268Z" fill="#DC466F"/>
<path d="M525.944 402.986C524.466 402.815 522.989 402.693 521.509 402.66C520.032 402.601 518.555 402.606 517.085 402.692C515.616 402.781 514.153 402.929 512.713 403.188C511.989 403.303 511.279 403.47 510.567 403.63C509.905 403.871 509.222 404.047 508.612 404.429C507.963 404.72 507.399 405.178 506.804 405.575C506.262 406.053 505.683 406.487 505.187 407.023C504.127 408.02 503.234 409.19 502.328 410.345C501.444 411.52 500.642 412.761 499.88 414.028C499.095 415.284 498.398 416.591 497.719 417.914C498.716 415.107 500.094 412.438 501.747 409.935C502.588 408.693 503.5 407.487 504.567 406.407C505.067 405.838 505.682 405.373 506.248 404.864C506.88 404.43 507.474 403.94 508.183 403.611C508.847 403.209 509.614 403.006 510.351 402.754C511.09 402.599 511.825 402.423 512.572 402.326C514.063 402.113 515.564 401.972 517.064 401.986C520.058 401.978 523.051 402.269 525.944 402.986Z" fill="#D12050"/>
<path d="M549.787 469.713C549.747 465.857 541.606 430.513 534.414 410.813C537.472 417.544 540.329 428.299 544.225 436.978C548.509 446.518 553.892 460.301 555.812 465.267C556.249 466.401 555.971 467.675 555.102 468.523C553.032 470.545 550.711 472.847 548.228 474.98C548.415 474.799 549.824 473.313 549.787 469.713Z" fill="#D12050"/>
<path d="M161.655 429.895C161.508 431.084 161.756 432.283 162.334 433.333C164.44 437.162 165.507 441.562 165.369 445.931C165.278 448.81 164.686 451.755 165.471 454.527C166.823 459.309 171.869 462.266 173.494 466.962C174.933 471.126 173.595 476.361 176.586 479.594C177.328 480.395 178.48 481.009 179.494 480.603C180.003 480.399 180.384 479.974 180.746 479.563C184.177 475.666 187.85 470.931 186.792 465.849C185.798 461.074 180.877 457.847 179.944 453.06C179.183 449.149 181.182 444.637 178.941 441.342C178.323 440.432 177.437 439.737 176.762 438.869C174.096 435.447 175.084 429.992 172.013 426.929C171.012 425.93 169.759 425.364 168.393 425.072C165.174 424.383 162.058 426.627 161.655 429.894V429.895Z" fill="#D35E5A"/>
<path d="M181.166 490.562C181.372 488.016 181.46 485.468 181.555 482.914C181.439 480.367 181.303 477.82 181.085 475.274C180.867 472.729 180.581 470.184 180.13 467.654C179.673 465.14 179.069 462.571 178.012 460.207C176.164 455.536 174.671 450.651 173.162 445.81L170.973 438.513C170.074 436.129 169.196 433.74 168.348 431.334C168.72 433.866 169.299 436.35 169.807 438.854L172 446.167C173.518 451.033 174.998 455.888 176.891 460.675C177.914 462.964 178.48 465.386 178.935 467.866C179.376 470.343 179.658 472.857 179.875 475.377C180.087 477.899 180.235 480.43 180.332 482.963L181.166 490.562Z" fill="#FFA8A5"/>
<path d="M167.723 438.939C168.143 439.575 168.684 440.052 169.265 440.473C169.563 440.673 169.913 440.804 170.239 440.968C170.569 441.126 170.857 441.339 171.125 441.58L171.24 441.686L171.344 441.528C171.587 441.155 171.882 440.81 172.114 440.434C172.339 440.054 172.575 439.68 172.774 439.287C173.163 438.496 173.451 437.655 173.598 436.745L173.526 436.709C172.89 437.377 172.395 438.114 172 438.902C171.807 439.299 171.652 439.713 171.484 440.121C171.324 440.535 171.228 440.979 171.08 441.396L171.299 441.344C170.989 441.159 170.7 440.947 170.452 440.678C170.2 440.417 169.973 440.121 169.694 439.896C169.121 439.465 168.506 439.09 167.772 438.876L167.723 438.939Z" fill="#FFA8A5"/>
<path d="M168.34 447.647C168.778 448.008 169.229 448.397 169.702 448.723C170.173 449.057 170.653 449.379 171.171 449.638C171.695 449.89 172.251 450.089 172.755 450.374C173.262 450.654 173.724 451.007 174.175 451.374L174.335 451.504L174.496 451.293C175.193 450.378 175.791 449.406 176.355 448.416C176.886 447.405 177.358 446.362 177.697 445.244L177.627 445.205C176.845 446.073 176.196 447.016 175.604 447.99C175.046 448.985 174.521 449.998 174.098 451.068L174.418 450.987C173.889 450.741 173.369 450.482 172.892 450.153C172.413 449.828 171.984 449.421 171.522 449.067C171.055 448.721 170.545 448.442 170.024 448.183C169.497 447.93 168.974 447.685 168.357 447.568L168.34 447.647Z" fill="#FFA8A5"/>
<path d="M171.434 459.139C171.913 459.622 172.448 459.979 173 460.301C173.544 460.636 174.143 460.859 174.779 461.008C175.415 461.163 175.99 461.443 176.502 461.835C177.014 462.223 177.514 462.65 178.024 462.986L178.411 463.239L178.698 462.808C179.121 462.174 179.506 461.519 179.804 460.815C180.104 460.114 180.37 459.392 180.518 458.608L180.43 458.559C179.846 459.105 179.379 459.715 178.947 460.344C178.513 460.972 178.165 461.648 177.856 462.346L178.53 462.168C177.946 461.847 177.325 461.661 176.711 461.446C176.096 461.235 175.536 460.93 175.031 460.51C174.529 460.083 173.978 459.746 173.374 459.525C172.774 459.293 172.154 459.104 171.476 459.048L171.434 459.139Z" fill="#FFA8A5"/>
<path d="M185.22 491.06C187.211 490.733 194.673 488.346 194.153 486.397C191.915 478.033 189.678 468.544 197.425 464.453C201.153 462.485 205.832 461.484 207.955 457.842C210.142 454.09 208.532 449.321 206.569 445.448C204.607 441.574 202.245 437.428 203.086 433.167C203.967 428.707 208.186 425.415 208.86 420.918C209.781 414.778 203.819 409.831 198.092 407.434C196.144 406.618 194.002 405.921 191.949 406.417C190.483 406.77 189.211 407.711 188.206 408.835C184.183 413.334 184.347 420.122 185.265 426.087C186.183 432.052 187.589 438.351 185.341 443.953C183.746 447.931 180.33 451.673 181.244 455.861C181.611 457.539 182.657 459.002 183.056 460.672C184.131 465.174 180.392 469.23 178.677 473.529C176.466 479.077 177.984 485.856 182.177 490.066C182.974 490.866 184.104 491.243 185.22 491.06Z" fill="#FF7571"/>
<path d="M184.516 491.153C184.977 487.842 185.438 484.543 186.028 481.268C186.168 480.449 186.34 479.634 186.472 478.815C186.596 477.996 186.67 477.169 186.806 476.351C187.053 474.712 187.328 473.078 187.641 471.455C188.273 468.21 189.029 464.979 190.138 461.908C190.694 460.378 191.355 458.881 192.225 457.591C192.658 456.948 193.169 456.377 193.735 455.992C194.481 455.503 195.192 454.872 195.748 454.12C196.896 452.599 197.241 450.667 197.201 448.927C197.162 447.162 196.828 445.476 196.455 443.831C195.688 440.546 194.723 437.374 194.186 434.143C193.641 430.928 193.534 427.635 194.384 424.551C194.644 423.798 194.85 423.032 195.098 422.266C195.35 421.503 195.679 420.762 196.049 420.036C196.792 418.584 197.762 417.232 198.836 415.946C197.52 416.979 196.298 418.173 195.28 419.554C194.768 420.24 194.289 420.963 193.882 421.73C193.46 422.489 193.104 423.297 192.918 424.15C191.989 427.525 192.122 431.058 192.687 434.393C193.246 437.745 194.228 440.967 194.975 444.171C195.339 445.772 195.648 447.38 195.682 448.952C195.715 450.518 195.412 452.048 194.527 453.218C194.089 453.804 193.54 454.302 192.894 454.727C192.079 455.285 191.475 455.995 190.975 456.728C189.981 458.205 189.296 459.789 188.711 461.386C187.556 464.588 186.793 467.872 186.15 471.166C185.832 472.814 185.554 474.468 185.303 476.125C185.19 476.955 185.034 477.778 184.935 478.611C184.85 479.444 184.813 480.283 184.759 481.12C184.578 484.466 184.454 487.809 184.516 491.153Z" fill="#FFA8A5"/>
<path d="M197.735 425.868C197.162 426.068 196.681 426.402 196.236 426.758C195.795 427.12 195.374 427.505 195.063 427.991C194.749 428.473 194.469 428.982 194.066 429.378C193.679 429.789 193.212 430.122 192.763 430.483L193.353 430.52C193.154 430.091 192.909 429.69 192.684 429.278C192.451 428.871 192.218 428.466 191.944 428.088C191.685 427.7 191.389 427.335 191.109 426.964C190.826 426.591 190.507 426.247 190.25 425.852L190.15 425.869C190.129 426.39 190.286 426.874 190.446 427.331C190.621 427.785 190.816 428.225 191.051 428.641C191.271 429.066 191.55 429.452 191.832 429.835C192.123 430.213 192.4 430.595 192.734 430.946L193.103 431.334L193.324 430.982C193.626 430.504 193.918 430.006 194.295 429.588C194.655 429.157 195.146 428.845 195.61 428.514C196.077 428.185 196.445 427.765 196.806 427.338C197.164 426.905 197.498 426.46 197.798 425.947L197.735 425.868Z" fill="#FFA8A5"/>
<path d="M190.496 438.532C190.733 439.102 191.042 439.622 191.387 440.109C191.74 440.59 192.107 441.059 192.528 441.478C192.959 441.888 193.452 442.238 193.914 442.615C194.367 443.001 194.766 443.435 195.128 443.909L195.244 444.06L195.406 443.93C196.009 443.451 196.487 443.014 196.962 442.503C197.412 441.989 197.891 441.501 198.31 440.967C198.733 440.436 199.126 439.884 199.5 439.318C199.878 438.752 200.217 438.162 200.611 437.61L200.554 437.526C199.893 437.839 199.379 438.322 198.868 438.783C198.366 439.257 197.899 439.76 197.468 440.287C197.032 440.812 196.661 441.387 196.256 441.932C195.861 442.465 195.527 443.128 195.152 443.595L195.43 443.616C194.972 443.241 194.559 442.818 194.204 442.343C193.858 441.859 193.547 441.343 193.183 440.88C192.81 440.425 192.385 440.016 191.962 439.607C191.532 439.204 191.075 438.824 190.576 438.471L190.496 438.532Z" fill="#FFA8A5"/>
<path d="M203.807 448.309C203.178 449.046 202.527 449.726 201.861 450.375C201.192 451.026 200.475 451.595 199.777 452.22C199.065 452.825 198.258 453.367 197.344 453.634C196.438 453.919 195.476 453.956 194.548 453.945L194.964 454.237C194.8 453.456 194.558 452.719 194.302 451.974C194.049 451.231 193.728 450.508 193.34 449.819C192.955 449.127 192.499 448.466 191.961 447.869C191.413 447.289 190.78 446.744 190.023 446.473L189.973 446.56C190.545 447.079 190.987 447.677 191.371 448.317C191.761 448.95 192.09 449.621 192.416 450.295L193.347 452.351C193.653 453.04 193.923 453.757 194.191 454.454L194.32 454.791L194.606 454.746C195.593 454.591 196.53 454.257 197.446 453.935C198.351 453.582 199.281 453.272 200.171 452.816C201.071 452.375 201.828 451.694 202.463 450.934C203.097 450.173 203.615 449.307 203.897 448.354L203.807 448.309Z" fill="#FFA8A5"/>
<path d="M185.809 455.791C185.504 456.523 185.4 457.322 185.42 458.113C185.454 458.902 185.578 459.698 185.855 460.443C186.146 461.182 186.573 461.861 187.049 462.477L188.443 464.328L188.542 464.46L188.702 464.346C189.456 463.81 190.313 463.404 191.13 462.978C191.946 462.54 192.792 462.164 193.638 461.805C194.483 461.44 195.328 461.071 196.195 460.745C197.056 460.391 197.942 460.11 198.842 459.772L198.827 459.671C196.908 459.63 194.969 460.037 193.204 460.814C192.319 461.201 191.486 461.697 190.681 462.22C189.878 462.756 189.162 463.401 188.46 464.066L188.72 464.084C188.204 463.54 187.734 462.939 187.434 462.249C187.1 461.575 186.935 460.841 186.706 460.155C186.261 458.769 185.979 457.342 185.908 455.814L185.809 455.791Z" fill="#FFA8A5"/>
<path d="M171.687 512.642H192.991C194.968 512.642 196.649 510.932 196.947 508.619L200.319 482.412C200.689 479.546 198.813 476.963 196.364 476.963H168.315C165.865 476.963 163.99 479.546 164.359 482.412L167.732 508.619C168.029 510.932 169.71 512.642 171.687 512.642Z" fill="#524787"/>
<path d="M168.315 476.965H182.654C180.204 476.965 178.329 479.547 178.698 482.413L182.07 508.621C182.368 510.934 184.05 512.643 186.026 512.643H171.687C169.71 512.643 168.029 510.934 167.732 508.621L164.359 482.413C163.99 479.547 165.865 476.965 168.315 476.965Z" fill="#38295C"/>
<path d="M362.523 505.445H273.421C272.524 505.445 271.797 506.172 271.797 507.07V511.017C271.797 511.915 272.524 512.642 273.421 512.642H362.523V505.445Z" fill="#3A4278"/>
<path d="M385.454 510.409V512.013C385.454 512.361 385.173 512.642 384.826 512.642H362.381C361.683 512.642 361.117 512.076 361.117 511.378V506.701C361.117 505.947 361.774 505.36 362.524 505.445L384.896 509.786C385.214 509.822 385.454 510.09 385.454 510.409Z" fill="#524787"/>
<path d="M206.809 354.005H373.337C376.707 354.005 379.713 356.119 380.855 359.289L417.274 460.429C418.797 465.645 414.981 469.553 408.849 470.214C407.908 470.315 403.435 468.304 396.411 465H247.533C244.164 465 241.157 462.887 240.015 459.717L207.116 368.353C201.554 365.45 198.383 363.791 198.383 363.791C198.383 363.791 196.323 354.005 206.809 354.005Z" fill="#636A98"/>
<path d="M368.126 359.219H201.597C199.233 359.219 197.583 361.565 198.384 363.79L234.804 464.93C235.946 468.1 238.954 470.213 242.322 470.213H408.85C411.217 470.213 412.865 467.867 412.064 465.641L375.645 364.502C374.503 361.332 371.495 359.219 368.126 359.219Z" fill="#838BC0"/>
<path d="M330.53 470.214L323.138 442.797L295.121 470.214H330.53Z" fill="#261B41"/>
<path d="M368.246 453.384L366.105 447.436H368.797L370.938 453.384H368.246Z" fill="#261B41"/>
<path d="M362.578 453.384L360.438 447.436H363.129L365.27 453.384H362.578Z" fill="#261B41"/>
<path d="M356.91 453.384L354.77 447.436H357.461L359.603 453.384H356.91Z" fill="#261B41"/>
<path d="M351.242 453.384L349.102 447.436H351.793L353.934 453.384H351.242Z" fill="#261B41"/>
<path d="M270.727 453.384L268.586 447.436H271.278L273.419 453.384H270.727Z" fill="#261B41"/>
<path d="M265.059 453.384L262.918 447.436H265.61L267.75 453.384H265.059Z" fill="#261B41"/>
<path d="M259.392 453.384L257.25 447.436H259.942L262.083 453.384H259.392Z" fill="#261B41"/>
<path d="M253.723 453.384L251.582 447.436H254.274L256.415 453.384H253.723Z" fill="#261B41"/>
<path d="M274.294 502.868C275.937 498.143 295.865 433.84 295.865 433.84H321.445L323.135 442.796C323.135 442.796 305.984 498.143 304.341 502.868C304.215 503.228 304.096 503.589 303.984 503.951H303.986C302.483 508.571 306.449 508.551 310.914 508.551H356.028V512.642H310.914H280.869C271.829 512.642 272.651 507.592 274.294 502.868Z" fill="#636A98"/>
<path d="M321.447 433.84C321.447 433.84 301.519 498.143 299.876 502.868C298.232 507.592 297.411 512.642 306.45 512.642H276.403C267.364 512.642 268.186 507.592 269.83 502.868C271.473 498.143 291.4 433.84 291.4 433.84H321.447Z" fill="#838BC0"/>
<path d="M315.185 433.84C313.203 433.749 311.221 433.704 309.239 433.639C307.258 433.571 305.276 433.555 303.294 433.513C301.312 433.481 299.33 433.423 297.348 433.422L291.403 433.385L291.071 433.384L290.968 433.705C290.14 436.295 289.323 438.889 288.544 441.494L286.174 449.298C284.648 454.519 283.12 459.738 281.727 464.999C283.557 459.874 285.254 454.707 286.955 449.541L289.423 441.766C290.257 439.178 291.052 436.579 291.837 433.975L291.403 434.295L297.348 434.258C299.33 434.258 301.312 434.2 303.294 434.168C305.276 434.125 307.258 434.11 309.239 434.041C311.221 433.977 313.203 433.932 315.185 433.84Z" fill="#8475D5"/>
<path d="M140.916 528.429H581.982C586.342 528.429 589.875 524.895 589.875 520.535C589.875 516.176 586.342 512.642 581.982 512.642H140.916C136.557 512.642 133.023 516.176 133.023 520.535C133.023 524.895 136.557 528.429 140.916 528.429Z" fill="#A14F58"/>
<path d="M140.916 528.429H581.982C586.342 528.429 589.875 524.895 589.875 520.535H133.023C133.023 524.895 136.557 528.429 140.916 528.429Z" fill="#713349"/>
<path d="M232.877 273.79C232.877 310.456 203.154 340.179 166.488 340.179C129.822 340.179 100.098 310.456 100.098 273.79C100.098 237.124 129.822 207.4 166.488 207.4C203.154 207.4 232.877 237.124 232.877 273.79Z" fill="#AEBAEA"/>
<path d="M261.078 260.81C261.078 282.133 278.363 299.418 299.685 299.418C321.007 299.418 338.292 282.133 338.292 260.81C338.292 239.488 321.007 222.203 299.685 222.203C278.363 222.203 261.078 239.488 261.078 260.81Z" fill="#E6B851"/>
<path d="M280.638 275.924H318.731C320.479 275.924 321.897 274.506 321.897 272.758V248.863C321.897 247.114 320.479 245.697 318.731 245.697H280.638C278.89 245.697 277.473 247.114 277.473 248.863V272.758C277.473 274.506 278.89 275.924 280.638 275.924Z" fill="#6C83DC"/>
<path d="M280.638 275.924H318.731C320.479 275.924 321.897 274.506 321.897 272.758L299.685 258.79L277.473 272.758C277.473 274.506 278.89 275.924 280.638 275.924Z" fill="#C8DDF5"/>
<path d="M280.638 245.697H318.731C320.479 245.697 321.897 247.114 321.897 248.862L299.685 262.83L277.473 248.862C277.473 247.114 278.89 245.697 280.638 245.697Z" fill="#4371D7"/>
<path d="M534.789 316.366C534.789 337.688 552.073 354.974 573.396 354.974C594.718 354.974 612.003 337.688 612.003 316.366C612.003 295.044 594.718 277.759 573.396 277.759C552.073 277.759 534.789 295.044 534.789 316.366Z" fill="#E6B851"/>
<path d="M566.794 317.892C563.503 317.892 560.838 315.225 560.838 311.935C560.838 308.645 563.503 305.978 566.794 305.978C570.084 305.978 572.751 308.645 572.751 311.935C572.751 315.225 570.084 317.892 566.794 317.892ZM584.223 308.817H580.342C579.99 307.285 579.386 305.855 578.576 304.563L581.324 301.816C581.698 301.441 581.698 300.834 581.324 300.459L578.27 297.406C577.896 297.032 577.288 297.032 576.913 297.406L574.166 300.153C572.874 299.342 571.443 298.738 569.912 298.387V294.506C569.912 293.976 569.483 293.546 568.953 293.546H564.635C564.106 293.546 563.676 293.976 563.676 294.506V298.387C562.145 298.738 560.714 299.342 559.421 300.153L556.675 297.406C556.301 297.032 555.692 297.032 555.318 297.406L552.265 300.459C551.891 300.834 551.891 301.441 552.265 301.816L555.012 304.563C554.202 305.855 553.598 307.285 553.246 308.817H549.365C548.835 308.817 548.406 309.247 548.406 309.776V314.094C548.406 314.624 548.835 315.053 549.365 315.053H553.246C553.598 316.584 554.202 318.015 555.012 319.307L552.265 322.054C551.891 322.43 551.891 323.037 552.265 323.411L555.318 326.464C555.692 326.839 556.301 326.839 556.675 326.464L559.421 323.717C560.714 324.527 562.145 325.131 563.676 325.482V329.364C563.676 329.894 564.106 330.323 564.635 330.323H568.953C569.483 330.323 569.912 329.894 569.912 329.364V325.482C571.443 325.131 572.874 324.527 574.166 323.717L576.913 326.464C577.288 326.839 577.896 326.839 578.27 326.464L581.324 323.411C581.698 323.037 581.698 322.43 581.324 322.054L578.576 319.307C579.386 318.015 579.99 316.584 580.342 315.053H584.223C584.754 315.053 585.182 314.624 585.182 314.094V309.776C585.182 309.247 584.754 308.817 584.223 308.817" fill="#6C83DC"/>
<path d="M566.796 316.998C564 316.998 561.733 314.73 561.733 311.934C561.733 309.138 564 306.872 566.796 306.872C569.592 306.872 571.859 309.138 571.859 311.934C571.859 314.73 569.592 316.998 566.796 316.998ZM566.796 303.642C562.217 303.642 558.504 307.355 558.504 311.934C558.504 316.515 562.217 320.226 566.796 320.226C571.375 320.226 575.089 316.515 575.089 311.934C575.089 307.355 571.375 303.642 566.796 303.642Z" fill="#4371D7"/>
<path d="M591.902 330.456C590.221 330.456 588.858 329.094 588.858 327.413C588.858 325.732 590.221 324.37 591.902 324.37C593.582 324.37 594.945 325.732 594.945 327.413C594.945 329.094 593.582 330.456 591.902 330.456ZM600.806 325.82H598.822C598.644 325.038 598.335 324.307 597.921 323.647L599.324 322.243C599.515 322.052 599.515 321.742 599.324 321.55L597.765 319.991C597.574 319.799 597.263 319.799 597.072 319.991L595.667 321.394C595.008 320.98 594.277 320.672 593.495 320.492V318.51C593.495 318.239 593.275 318.02 593.004 318.02H590.799C590.528 318.02 590.308 318.239 590.308 318.51V320.492C589.527 320.672 588.796 320.98 588.136 321.394L586.732 319.991C586.54 319.799 586.23 319.799 586.038 319.991L584.48 321.55C584.288 321.742 584.288 322.052 584.48 322.243L585.882 323.647C585.469 324.307 585.16 325.038 584.981 325.82H582.998C582.727 325.82 582.508 326.04 582.508 326.31V328.516C582.508 328.786 582.727 329.006 582.998 329.006H584.981C585.16 329.788 585.469 330.519 585.882 331.179L584.48 332.583C584.288 332.774 584.288 333.085 584.48 333.276L586.038 334.836C586.23 335.027 586.54 335.027 586.732 334.836L588.136 333.432C588.796 333.846 589.527 334.155 590.308 334.334V336.317C590.308 336.588 590.528 336.808 590.799 336.808H593.004C593.275 336.808 593.495 336.588 593.495 336.317V334.334C594.277 334.155 595.008 333.846 595.667 333.432L597.072 334.836C597.263 335.027 597.574 335.027 597.765 334.836L599.324 333.276C599.515 333.085 599.515 332.774 599.324 332.583L597.921 331.179C598.335 330.519 598.644 329.788 598.822 329.006H600.806C601.076 329.006 601.295 328.786 601.295 328.516V326.31C601.295 326.04 601.076 325.82 600.806 325.82" fill="#6C83DC"/>
<path d="M591.901 330C590.471 330 589.313 328.842 589.313 327.414C589.313 325.984 590.471 324.826 591.901 324.826C593.329 324.826 594.487 325.984 594.487 327.414C594.487 328.842 593.329 330 591.901 330ZM591.901 323.177C589.561 323.177 587.664 325.073 587.664 327.414C587.664 329.752 589.561 331.649 591.901 331.649C594.239 331.649 596.136 329.752 596.136 327.414C596.136 325.073 594.239 323.177 591.901 323.177Z" fill="#4371D7"/>
<path d="M360.617 207.013C360.617 228.335 377.902 245.62 399.224 245.62C420.546 245.62 437.831 228.335 437.831 207.013C437.831 185.69 420.546 168.405 399.224 168.405C377.902 168.405 360.617 185.69 360.617 207.013Z" fill="#E3E4EB"/>
<path d="M377.012 196.817H421.437V191.92C421.437 190.234 420.07 188.867 418.384 188.867H380.065C378.378 188.867 377.012 190.234 377.012 191.92V196.817Z" fill="#4371D7"/>
<path d="M402.03 205.392H404.413C404.818 205.392 405.146 205.064 405.146 204.659V202.275C405.146 201.87 404.818 201.543 404.413 201.543H402.03C401.626 201.543 401.297 201.87 401.297 202.275V204.659C401.297 205.064 401.626 205.392 402.03 205.392Z" fill="#6C83DC"/>
<path d="M392.873 205.392H395.256C395.662 205.392 395.989 205.064 395.989 204.659V202.275C395.989 201.87 395.662 201.543 395.256 201.543H392.873C392.469 201.543 392.141 201.87 392.141 202.275V204.659C392.141 205.064 392.469 205.392 392.873 205.392Z" fill="#6C83DC"/>
<path d="M383.713 205.392H386.097C386.502 205.392 386.83 205.064 386.83 204.659V202.275C386.83 201.87 386.502 201.543 386.097 201.543H383.713C383.309 201.543 382.98 201.87 382.98 202.275V204.659C382.98 205.064 383.309 205.392 383.713 205.392Z" fill="#6C83DC"/>
<path d="M411.186 213.277H413.569C413.975 213.277 414.302 212.949 414.302 212.545V210.161C414.302 209.756 413.975 209.429 413.569 209.429H411.186C410.781 209.429 410.453 209.756 410.453 210.161V212.545C410.453 212.949 410.781 213.277 411.186 213.277Z" fill="#6C83DC"/>
<path d="M402.03 213.277H404.413C404.818 213.277 405.146 212.949 405.146 212.545V210.161C405.146 209.756 404.818 209.429 404.413 209.429H402.03C401.626 209.429 401.297 209.756 401.297 210.161V212.545C401.297 212.949 401.626 213.277 402.03 213.277Z" fill="#6C83DC"/>
<path d="M392.873 213.277H395.256C395.662 213.277 395.989 212.949 395.989 212.545V210.161C395.989 209.756 395.662 209.429 395.256 209.429H392.873C392.469 209.429 392.141 209.756 392.141 210.161V212.545C392.141 212.949 392.469 213.277 392.873 213.277Z" fill="#6C83DC"/>
<path d="M383.713 213.277H386.097C386.502 213.277 386.83 212.949 386.83 212.545V210.161C386.83 209.756 386.502 209.429 386.097 209.429H383.713C383.309 209.429 382.98 209.756 382.98 210.161V212.545C382.98 212.949 383.309 213.277 383.713 213.277Z" fill="#6C83DC"/>
<path d="M411.186 221.163H413.569C413.975 221.163 414.302 220.835 414.302 220.43V218.046C414.302 217.641 413.975 217.313 413.569 217.313H411.186C410.781 217.313 410.453 217.641 410.453 218.046V220.43C410.453 220.835 410.781 221.163 411.186 221.163Z" fill="#6C83DC"/>
<path d="M402.03 221.163H404.413C404.818 221.163 405.146 220.835 405.146 220.43V218.046C405.146 217.641 404.818 217.313 404.413 217.313H402.03C401.626 217.313 401.297 217.641 401.297 218.046V220.43C401.297 220.835 401.626 221.163 402.03 221.163Z" fill="#6C83DC"/>
<path d="M392.873 221.163H395.256C395.662 221.163 395.989 220.835 395.989 220.43V218.046C395.989 217.641 395.662 217.313 395.256 217.313H392.873C392.469 217.313 392.141 217.641 392.141 218.046V220.43C392.141 220.835 392.469 221.163 392.873 221.163Z" fill="#6C83DC"/>
<path d="M548.354 226.853C548.354 248.175 531.069 265.46 509.747 265.46C488.425 265.46 471.141 248.175 471.141 226.853C471.141 205.531 488.425 188.245 509.747 188.245C531.069 188.245 548.354 205.531 548.354 226.853Z" fill="#FF7571"/>
<path d="M511.961 249.382V245.771C511.961 245.099 511.417 244.555 510.746 244.555H508.743C508.071 244.555 507.527 245.099 507.527 245.771V249.382C496.795 248.339 488.259 239.802 487.215 229.071H490.826C491.498 229.071 492.042 228.526 492.042 227.855V225.852C492.042 225.18 491.498 224.636 490.826 224.636H487.215C488.259 213.904 496.795 205.367 507.527 204.323V207.935C507.527 208.606 508.071 209.15 508.743 209.15H510.746C511.417 209.15 511.961 208.606 511.961 207.935V204.323C522.694 205.367 531.231 213.904 532.274 224.636H528.663C527.992 224.636 527.447 225.18 527.447 225.852V227.855C527.447 228.526 527.992 229.071 528.663 229.071H532.274C531.231 239.802 522.694 248.339 511.961 249.382ZM509.745 200.41C495.14 200.41 483.301 212.248 483.301 226.853C483.301 241.457 495.14 253.296 509.745 253.296C524.349 253.296 536.188 241.457 536.188 226.853C536.188 212.248 524.349 200.41 509.745 200.41Z" fill="#CC3834"/>
<path d="M491.298 196.959C491.298 195.596 491.517 194.432 491.953 193.468C492.389 192.486 493.171 191.404 494.299 190.221C495.408 189.039 496.172 188.03 496.59 187.193C497.027 186.357 497.245 185.484 497.245 184.575C497.245 183.756 497.109 183.192 496.836 182.883C496.581 182.556 496.199 182.392 495.69 182.392C494.654 182.392 494.135 183.02 494.135 184.275V186.32H491.298V184.465C491.298 182.92 491.68 181.738 492.444 180.919C493.208 180.083 494.317 179.664 495.772 179.664C497.227 179.664 498.336 180.083 499.1 180.919C499.864 181.738 500.246 182.92 500.246 184.465C500.246 185.629 499.964 186.766 499.4 187.875C498.855 188.985 497.9 190.258 496.536 191.695C495.645 192.64 495.045 193.413 494.735 194.013C494.426 194.595 494.272 195.223 494.272 195.896V196.305H499.973V199.033H491.298V196.959ZM507.295 195.568H501.566V192.84L507.022 179.937H510.295V192.84H511.714V195.568H510.295V199.033H507.295V195.568ZM507.295 192.84V185.393H507.24L504.294 192.84H507.295ZM519.854 179.937H522.445L514.916 199.033H512.325L519.854 179.937ZM497.218 215.665H491.162V212.937H500.164V215.556L495.472 232.033H492.417L497.218 215.665Z" fill="#D6C9DB"/>
<path d="M269.338 379.771C270.599 386.106 264.734 391.737 262.898 392.793C261.061 393.848 248.739 398.775 241.336 398.951C233.934 399.127 224.164 383.467 228.162 381.708C232.161 379.948 259.399 378.013 262.39 378.013C265.381 378.013 269.338 379.771 269.338 379.771Z" fill="#FFC6C8"/>
<path d="M249.926 376.43C246.695 395.432 239.021 410.213 236.626 410.477C234.232 410.74 211.228 402.823 204.887 399.919C198.546 397.016 206.834 352.417 210.781 353.203C214.729 353.988 223.381 362.556 230.526 366.665C237.671 370.774 249.926 376.43 249.926 376.43Z" fill="#F9CA45"/>
<path d="M212.038 384.329C214.256 388.132 232.536 397.772 242.604 401.286C240.116 406.897 237.771 410.35 236.629 410.476C234.579 410.702 217.421 404.93 208.551 401.443C209.294 394.381 212.038 384.329 212.038 384.329Z" fill="#C7A237"/>
<path d="M269.366 378.893C269.547 386.432 262.757 387.515 254.628 385.58C246.499 383.644 233.227 365.345 227.319 357.075C221.41 348.805 210.385 334.069 208.106 332.751C205.827 331.43 200.598 330.73 196.125 323.295C191.652 315.859 197.536 300.287 199.65 298.44C201.764 296.592 219.878 302.76 221.983 305.879C224.087 308.997 220.492 325.756 221.13 327.867C221.768 329.979 237.184 347.222 243.916 351.445C250.646 355.668 269.235 373.439 269.366 378.893Z" fill="#FFC6C8"/>
<path d="M208.926 310.881C206.795 309.826 206.281 305.03 207.62 305.876C208.961 306.721 211.305 306.703 214.477 306.658C217.649 306.614 218.95 306.341 218.95 306.341C218.95 306.341 219.274 308.418 219.258 310.121C219.258 310.121 211.057 311.937 208.926 310.881Z" fill="#FF8B8C"/>
<path d="M194.821 311.971C196.113 309.569 197.11 307.748 197.11 307.748L209.571 319.742C212.978 316.788 217.147 314.091 217.147 314.091L218.244 316.046C216.228 319.458 214.472 326.672 214.432 328.431C214.432 328.431 212.518 330.543 211.45 330.719C211.45 330.719 224.781 351.833 233.351 362.214C241.87 372.534 247.705 381.46 251.723 384.329C243.619 379.656 232.566 364.422 227.316 357.075C221.408 348.805 210.384 334.069 208.104 332.75C205.826 331.43 200.597 330.73 196.125 323.294C194.35 320.345 194.217 316.117 194.821 311.971Z" fill="#FF8B8C"/>
<path d="M220.76 313.175C220.608 314.406 208.226 325.14 206.929 326.371C206.832 326.464 205.865 326.605 205.599 326.371C202.305 323.477 187.925 297.365 187.669 296.423C187.428 295.543 196.975 286.561 199.89 284.158C200.287 283.83 201.923 284.029 202.191 284.426C205.132 288.782 220.955 311.586 220.76 313.175Z" fill="#050233"/>
<path d="M219.427 313.175C219.276 314.406 206.893 325.14 205.597 326.371C204.3 327.603 186.613 297.441 186.336 296.423C186.096 295.543 196.725 286.707 199.639 284.303C200.036 283.976 200.59 284.029 200.859 284.426C203.8 288.782 219.622 311.586 219.427 313.175Z" fill="#211E88"/>
<path d="M217.343 311.41C217.202 312.561 205.618 322.603 204.405 323.756C203.193 324.908 186.646 296.691 186.387 295.738C186.162 294.916 196.105 286.649 198.832 284.401C199.203 284.095 199.722 284.143 199.972 284.515C202.725 288.59 217.526 309.923 217.343 311.41Z" fill="#00B1FA"/>
<path d="M209.918 296.693C208 295.537 205.646 291.622 205.433 290.301C205.222 288.983 205.353 287.794 206.383 287.53C207.414 287.267 210.588 291.402 212.17 292.633C213.752 293.865 215.678 296.416 214.893 298.132C214.109 299.847 210.594 299.187 210.217 298.924C209.841 298.66 209.918 296.693 209.918 296.693Z" fill="#FFC6C8"/>
<path d="M205.789 287.878C205.181 289.379 209.142 295.399 212.616 297.133L211.325 298.608C211.325 298.608 210.739 298.479 209.986 298.301C209.882 297.633 209.917 296.693 209.917 296.693C207.999 295.537 205.645 291.622 205.432 290.303C205.272 289.302 205.313 288.382 205.789 287.878Z" fill="#FF8B8C"/>
<path d="M214.376 302.776C211.076 301.013 208.489 301.21 206.694 300.485C204.899 299.759 204.573 296.988 205.794 296.526C207.016 296.064 214.451 297.252 216.368 298.11C218.285 298.967 219.201 302.919 219.201 302.919L214.376 302.776Z" fill="#FFC6C8"/>
<path d="M212.928 300.72C214.795 301.072 215.436 300.72 215.436 300.72C215.382 301.449 216.071 301.812 216.846 302.849L214.372 302.776C211.074 301.013 208.486 301.211 206.691 300.485C205.872 300.154 205.376 299.397 205.176 298.628C205.975 300.148 211.072 300.37 212.928 300.72Z" fill="#FF8B8C"/>
<path d="M221.979 305.878C220.219 308.314 211.586 307.259 209.845 306.994C208.105 306.73 207.013 305.631 207.191 304.524C207.549 302.287 218.957 302.684 219.899 303.036C220.841 303.388 221.979 305.878 221.979 305.878Z" fill="#FFC6C8"/>
<path d="M207.254 305.062C208.433 306.234 211.269 306.902 214.363 307.152C217.043 307.368 218.583 307.264 218.939 307.233C215.685 307.751 211.069 307.179 209.847 306.995C208.393 306.775 207.441 305.966 207.254 305.062Z" fill="#FF8B8C"/>
<path d="M181.58 340.008C199.904 349.333 202.91 348.972 210.782 353.202C218.651 357.432 216.309 401.943 215.81 408.805C215.31 415.667 213.414 442.939 214.459 450.329C215.505 457.719 219.578 485.168 221.383 489.389C223.186 493.613 226.626 500.74 221.305 504.961C215.983 509.184 204.723 512.088 180.275 510.505C155.827 508.921 129.473 493.877 128.307 491.766C127.141 489.655 139.994 450.857 140.532 443.467C141.07 436.076 142.529 430.534 143.307 427.103C144.084 423.672 136.306 407.573 135.064 397.279C133.821 386.987 122.638 358.592 124.759 353.39C126.88 348.189 146.357 342.395 159.621 335.78C172.884 329.166 181.58 340.008 181.58 340.008Z" fill="#F9CA45"/>
<path d="M199.749 351.549C196.732 361.464 190.591 370.403 182.417 376.775C172.493 374.342 162.403 369.969 154.277 363.774C163.358 370.463 173.263 376.09 183.867 379.931C192.822 372.596 198.137 363.012 199.749 351.549Z" fill="#C7A237"/>
<path d="M196.006 346.83C192.486 345.328 187.964 343.257 181.579 340.008C181.579 340.008 172.884 329.166 159.621 335.781C155.018 338.075 149.669 340.271 144.555 342.378C152.456 355.82 165.258 366.335 180.035 371.336C187.827 365.199 193.431 356.407 196.006 346.83Z" fill="#FFC6C8"/>
<path opacity="0.2" d="M128.309 491.766C127.143 489.654 139.996 450.857 140.534 443.467C141.071 436.077 142.53 430.534 143.308 427.104C144.086 423.672 136.308 407.572 135.065 397.28C134.85 395.491 134.329 393.148 133.635 390.483L141.897 384.329C146.743 397.845 149.764 421.598 154.357 427.404C158.949 433.211 170.389 435.585 170.389 435.585C170.389 435.585 159.089 438.225 154.163 437.169C154.163 437.169 148.902 458.02 148.842 468.313C148.783 478.606 149.739 494.177 149.861 496.289C149.906 497.077 149.732 499.826 149.496 502.958C137.656 498.271 128.967 492.957 128.309 491.766Z" fill="black"/>
<path d="M161.7 317.031C161.511 328.044 160.784 335.609 158.344 337.722C158.344 337.722 162.541 355.997 179.296 354.436C184.966 353.908 184.426 344.407 181.579 340.009L183.265 326.501L161.7 317.031Z" fill="#FFC6C8"/>
<path d="M159.621 335.78C161.055 332.402 161.55 325.82 161.701 317.03L183.267 326.5L182.185 335.162C178.363 336.877 159.621 335.78 159.621 335.78Z" fill="#FF8B8C"/>
<path d="M102.317 406.103C98.6026 411.206 93.6343 423.874 95.4989 429.681C97.3635 435.488 116.596 461.352 125.392 471.029C134.19 480.706 136.185 482.29 137.715 485.457C139.244 488.625 146.738 501.688 148.706 503.669C150.673 505.647 154.217 505.912 154.217 505.912C154.217 505.912 156.866 508.814 161.94 508.287C161.94 508.287 166.36 511.322 169.865 512.113C169.865 512.113 171.022 514.355 172.195 514.553C173.368 514.753 174.86 512.378 172.699 507.627C170.538 502.876 166.987 500.897 166.416 497.862C165.845 494.827 163.098 488.634 163.098 488.634C163.098 488.634 169.266 494.958 173.064 495.354C176.863 495.751 177.373 493.507 175.288 491.659C173.204 489.812 170.502 487.041 167.99 483.477C165.478 479.914 162.352 477.54 157.518 476.88C152.682 476.22 149.29 475.693 148.038 474.769C146.786 473.845 140.464 464.872 136.144 455.194C131.824 445.516 127.954 433.15 116.975 422.291L121.813 413.845L102.317 406.103Z" fill="#FFC6C8"/>
<path d="M169.701 511.509C168.765 508.833 167.045 506.55 165.152 504.519L164.401 503.781C164.18 503.55 163.789 503.26 163.703 503.125C163.324 502.642 162.997 502.006 162.633 501.434C161.936 500.247 161.259 499.038 160.488 497.873C160.856 499.243 161.349 500.551 161.901 501.841C162.173 502.498 162.468 503.107 162.882 503.757C163.202 504.182 163.409 504.27 163.656 504.547L164.362 505.276C165.312 506.249 166.212 507.273 167.12 508.294C168.021 509.324 168.863 510.395 169.701 511.509Z" fill="#FF8B8C"/>
<path d="M161.731 507.373C161.004 505.952 160.141 504.72 159.371 503.426C158.565 502.148 157.85 500.866 157.116 499.456C157.037 501.117 157.649 502.681 158.458 504.024C159.303 505.358 160.379 506.532 161.731 507.373Z" fill="#FF8B8C"/>
<path d="M157.871 507.936C155.477 507.245 154.216 505.912 154.216 505.912C154.216 505.912 150.671 505.647 148.704 503.668C147.9 502.859 146.17 500.191 144.305 497.112C144.345 497.161 146.556 499.563 148.146 501.546C150.385 504.338 153.598 503.414 153.598 503.414L153.169 500.841C153.169 500.841 155.306 506.683 157.871 507.936" fill="#FF8B8C"/>
<path d="M95.415 423.229C95.5195 425.636 95.5481 427.551 99.1203 433.87C103.141 440.981 127.301 470.951 132.572 476.493C137.842 482.036 137.686 482.389 140.806 491.145C139.397 488.67 138.222 486.511 137.712 485.457C136.184 482.29 134.187 480.706 125.39 471.028C116.593 461.352 97.361 435.487 95.4964 429.68C94.9549 427.993 95.002 425.72 95.415 423.229Z" fill="#FF8B8C"/>
<path d="M114.353 416.302L112.391 419.574C112.391 419.574 115.046 420.292 116.973 422.29L120.803 415.791L114.353 416.302Z" fill="#FF8B8C"/>
<path d="M137.508 398.411C142.553 388.491 144.573 372.382 140.019 363.904C135.465 355.425 126.869 352.372 124.76 353.39C122.651 354.408 116.94 367.634 111.578 373.739C106.216 379.844 91.5736 396.97 91.1301 398.411C90.6857 399.853 101.713 411.487 122.454 420.031C124.923 421.049 137.508 398.411 137.508 398.411Z" fill="#F9CA45"/>
<g opacity="0.2">
<path d="M122.124 406.103L118.815 412.888C118.815 412.888 135.114 396.548 141.881 384.355C141.061 389.442 139.535 394.427 137.507 398.412C137.507 398.412 124.923 421.05 122.453 420.032C118.904 418.57 115.663 417.016 112.691 415.439L122.124 406.103Z" fill="black"/>
</g>
<path d="M184.513 318.016C183.392 313.476 183.416 308.833 183.146 304.19C182.943 300.718 182.767 297.541 179.616 295.464C177.313 293.947 174.426 293.649 171.717 293.992C164.435 294.916 162.869 302.012 163.426 308.73C163.853 313.872 165.862 318.81 167.857 323.54C165.179 323.422 161.523 322.018 159.924 319.79C160.642 322.722 162.003 325.417 164.129 327.491C156.369 327.357 149.166 322.28 145.055 315.46C140.946 308.642 139.643 300.315 140.081 292.29C140.6 282.765 143.57 273.217 149.461 265.884C161.31 251.135 184.139 249.415 198.04 262.09C202.819 266.447 206.286 272.289 208.02 278.624C210.299 286.951 210.252 295.885 208.476 304.309C207.741 307.796 207.404 310.816 207.058 314.308C206.951 315.391 205.638 327.963 206.397 327.917C201.495 328.215 195.863 327.225 192.543 323.478C194.031 326.052 195.316 328.531 196.805 331.104C190.615 330.075 186.066 324.307 184.513 318.016Z" fill="#A072AE"/>
<path d="M159.076 300.884C156.886 299.589 154.254 298.887 152.224 300.947C149.231 303.982 153.482 318.102 159.934 314.671C159.934 314.671 169.277 327.735 176.133 331.431C182.991 335.126 187.875 333.279 190.443 330.639C193.011 328 201.767 317.173 203.343 305.697C203.905 301.607 203.303 293.557 203.428 291.841C203.812 286.563 205.812 282.229 201.648 278.087C197.442 273.902 191.616 271.37 185.686 271.161C178.217 270.897 170.752 274.254 165.805 279.857C160.341 286.047 159.394 293.038 159.076 300.884Z" fill="#FFC6C8"/>
<path d="M153.285 304.806C153.843 302.219 156.05 301.71 157.691 303.512C159.373 305.36 159.656 311.212 159.224 312.074C158.791 312.936 155.901 312.875 155.353 311.088C154.806 309.302 156.489 308.182 158.113 308.712C158.113 308.712 158.568 306.104 157.239 304.425C155.911 302.746 154.528 303.389 154.189 303.82C153.849 304.251 153.285 304.806 153.285 304.806Z" fill="#FF8B8C"/>
<path d="M171.145 293.362C171.769 292.781 172.433 292.241 173.127 291.728C173.827 291.223 174.573 290.77 175.365 290.4C176.152 290.03 176.975 289.632 177.846 289.565C178.709 289.489 179.576 289.558 180.366 289.897L180.355 290.016C179.933 290.186 179.531 290.294 179.135 290.408L177.972 290.73C177.216 290.953 176.432 291.02 175.664 291.276C174.902 291.529 174.149 291.854 173.409 292.227C172.662 292.591 171.94 293.023 171.211 293.456L171.145 293.362Z" fill="#471052"/>
<path d="M200.331 290.4C199.624 290.025 198.876 289.753 198.098 289.589C197.325 289.415 196.533 289.328 195.738 289.308C194.939 289.291 194.145 289.455 193.356 289.449C192.561 289.452 191.762 289.476 190.888 289.388L190.863 289.274C191.611 288.732 192.462 288.439 193.321 288.272C194.187 288.097 195.054 288.24 195.889 288.365C196.73 288.488 197.548 288.705 198.315 289.024C199.077 289.353 199.801 289.761 200.404 290.302L200.331 290.4Z" fill="#471052"/>
<path d="M178.981 298.002C178.951 296.886 178.389 296.034 177.725 296.099C177.061 296.164 176.546 297.123 176.575 298.239C176.605 299.355 177.167 300.207 177.831 300.141C178.496 300.077 179.009 299.118 178.981 298.002Z" fill="#471052"/>
<path d="M196.608 296.592C196.579 295.475 196.115 294.613 195.572 294.667C195.029 294.721 194.613 295.669 194.642 296.785C194.671 297.901 195.136 298.763 195.678 298.709C196.221 298.656 196.638 297.708 196.608 296.592Z" fill="#471052"/>
<path d="M184.5 308.852C186.028 309.915 188.281 309.892 189.944 308.797C189.755 309.657 189.37 310.495 188.534 310.801C187.697 311.106 186.773 311.016 186.003 310.663C185.235 310.31 184.986 309.537 184.5 308.852Z" fill="#FF8B8C"/>
<path d="M178.383 315.401C182.064 315.46 190.915 314.781 193.801 314.371C192.663 318.1 189.679 321.784 185.511 321.786C181.76 321.789 179.282 318.705 178.383 315.401Z" fill="#C47E75"/>
<path d="M181.762 320.568C183.225 320.117 184.715 320.349 185.314 320.534C185.314 320.534 187.261 319.172 190.091 320.067C188.803 321.106 187.272 321.785 185.513 321.786C184.065 321.787 182.812 321.321 181.762 320.568Z" fill="#FF8485"/>
<path d="M191.303 317.491C187.576 318.653 183.508 318.318 179.999 317.053C179.975 316.503 179.933 315.948 179.891 315.393C183.529 315.316 189.419 314.875 192.573 314.523C192.301 315.554 191.892 316.563 191.303 317.491Z" fill="white"/>
<path d="M162.758 288.737C168.763 288.481 174.72 287.159 180.268 284.85C181.324 282.407 181.36 280.24 181.518 277.585C183.027 280.352 183.924 283.45 184.08 286.599C187.576 286.372 191.089 286.184 194.586 285.958C195.565 283.187 195.684 280.333 195.529 277.399C196.711 280.155 197.304 283.627 197.707 286.598C199.818 285.848 202.492 286.943 204.698 287.337C207.43 281.25 207.251 270.222 201.47 265.606C195.841 261.109 186.063 259.885 179.182 260.881C164.547 263 153.044 275.152 153.953 290.291C154.471 298.928 158.804 307.095 165.017 313.118C161.322 305.749 160.59 296.689 162.758 288.737Z" fill="#A072AE"/>
<path d="M596 195C586.61 195 579 202.61 579 212C579 217.067 581.215 221.618 584.736 224.737C587.741 227.387 591.683 229 596 229C600.324 229 604.266 227.387 607.264 224.73C610.785 221.618 613 217.067 613 212C613 202.61 605.39 195 596 195Z" fill="#CBD5FC"/>
<path d="M605.934 223.351C605.064 222.702 603.484 221.624 601.764 220.828C600.044 220.038 599.033 218.184 599.308 216.317C599.308 216.29 599.314 216.263 599.321 216.23C599.321 216.23 603.236 213.579 602.694 210.996C602.694 210.996 602.815 211.003 602.995 210.989C604.722 210.829 604.829 208.259 603.123 207.984C603.109 207.984 603.089 207.977 603.076 207.977L603.022 207.696C603.544 205.869 604.816 200.334 600.967 200.87C600.967 200.87 598.203 196.298 592.36 198.5C586.511 200.696 588.037 205.936 588.037 205.936L588.76 208.024C587.187 208.413 587.334 210.842 589.007 210.996C589.188 211.009 589.315 211.003 589.315 211.003C588.766 213.586 592.682 216.237 592.682 216.237C592.688 216.27 592.688 216.297 592.695 216.324C592.963 218.191 591.952 220.045 590.239 220.835C588.512 221.631 586.939 222.715 586.069 223.358C585.547 223.739 585.085 224.201 584.73 224.743C587.742 227.387 591.684 229 596.001 229C600.325 229 604.267 227.387 607.266 224.73C606.917 224.194 606.456 223.733 605.934 223.351Z" fill="#819FDE"/>
<path d="M388.5 20C375.519 20 365 30.5195 365 43.5C365 50.5037 368.062 56.7951 372.929 61.1065C377.083 64.7703 382.532 67 388.5 67C394.477 67 399.926 64.7703 404.071 61.0972C408.938 56.7951 412 50.5037 412 43.5C412 30.5195 401.481 20 388.5 20Z" fill="#CBD5FC"/>
<path d="M402.228 59.1913C401.025 58.2938 398.842 56.8043 396.464 55.7033C394.086 54.6116 392.689 52.0488 393.069 49.4675C393.069 49.4305 393.078 49.3934 393.087 49.3472C393.087 49.3472 398.5 45.6834 397.75 42.1121C397.75 42.1121 397.917 42.1214 398.167 42.1029C400.554 41.8808 400.702 38.3281 398.342 37.9488C398.324 37.9488 398.296 37.9395 398.278 37.9395L398.204 37.5509C398.925 35.0251 400.683 27.3738 395.363 28.1139C395.363 28.1139 391.542 21.7948 383.465 24.8387C375.379 27.8734 377.488 35.1177 377.488 35.1177L378.488 38.0043C376.313 38.5409 376.517 41.8994 378.83 42.1121C379.08 42.1307 379.256 42.1214 379.256 42.1214C378.497 45.6927 383.909 49.3564 383.909 49.3564C383.919 49.4027 383.919 49.4397 383.928 49.4767C384.298 52.058 382.901 54.6208 380.532 55.7125C378.145 56.8135 375.971 58.3123 374.768 59.2005C374.047 59.7279 373.408 60.3663 372.918 61.1157C377.081 64.7702 382.531 66.9999 388.498 66.9999C394.475 66.9999 399.924 64.7702 404.069 61.0972C403.588 60.357 402.95 59.7186 402.228 59.1913Z" fill="#819FDE"/>
<path d="M71 184C76.5236 184 81 188.476 81 194C81 196.98 79.6969 199.657 77.626 201.492C75.8583 203.051 73.5394 204 71 204C68.4567 204 66.1378 203.051 64.374 201.488C62.3032 199.657 61 196.98 61 194C61 188.476 65.4764 184 71 184Z" fill="#CBD5FC"/>
<path d="M65.1565 200.677C65.6683 200.295 66.5974 199.661 67.6092 199.193C68.621 198.728 69.2155 197.638 69.0541 196.539C69.0541 196.524 69.0502 196.508 69.0462 196.488C69.0462 196.488 66.7431 194.929 67.062 193.409C67.062 193.409 66.9911 193.413 66.8848 193.405C65.8691 193.311 65.8061 191.799 66.81 191.638C66.8179 191.638 66.8297 191.634 66.8376 191.634L66.8691 191.468C66.562 190.394 65.8139 187.138 68.0777 187.453C68.0777 187.453 69.7037 184.764 73.1407 186.059C76.5817 187.35 75.684 190.433 75.684 190.433L75.2588 191.661C76.184 191.89 76.0974 193.319 75.1132 193.409C75.0069 193.417 74.9321 193.413 74.9321 193.413C75.2549 194.933 72.9517 196.492 72.9517 196.492C72.9478 196.512 72.9478 196.528 72.9439 196.543C72.7864 197.642 73.3809 198.732 74.3887 199.197C75.4045 199.665 76.3297 200.303 76.8415 200.681C77.1486 200.905 77.4202 201.177 77.6289 201.496C75.8573 203.051 73.5384 204 70.999 204C68.4557 204 66.1368 203.051 64.373 201.488C64.5777 201.173 64.8494 200.902 65.1565 200.677Z" fill="#819FDE"/>
<path d="M179.5 531C168.177 531 159 540.177 159 551.5C159 557.61 161.671 563.098 165.917 566.859C169.541 570.055 174.294 572 179.5 572C184.714 572 189.468 570.055 193.083 566.851C197.329 563.098 200 557.61 200 551.5C200 540.177 190.823 531 179.5 531Z" fill="#CBD5FC"/>
<path d="M191.479 565.188C190.429 564.405 188.525 563.106 186.451 562.145C184.376 561.193 183.158 558.957 183.489 556.706C183.489 556.673 183.497 556.641 183.505 556.601C183.505 556.601 188.226 553.405 187.572 550.289C187.572 550.289 187.718 550.297 187.936 550.281C190.018 550.088 190.147 546.988 188.089 546.657C188.073 546.657 188.049 546.649 188.032 546.649L187.968 546.31C188.597 544.107 190.131 537.432 185.49 538.078C185.49 538.078 182.157 532.566 175.111 535.221C168.057 537.868 169.897 544.188 169.897 544.188L170.769 546.706C168.872 547.174 169.05 550.104 171.067 550.289C171.285 550.305 171.439 550.297 171.439 550.297C170.777 553.413 175.498 556.609 175.498 556.609C175.506 556.649 175.506 556.681 175.514 556.714C175.837 558.965 174.619 561.201 172.552 562.153C170.47 563.114 168.574 564.421 167.524 565.196C166.895 565.656 166.338 566.213 165.91 566.867C169.542 570.055 174.296 572 179.501 572C184.715 572 189.469 570.055 193.085 566.851C192.665 566.205 192.108 565.648 191.479 565.188Z" fill="#819FDE"/>
<circle opacity="0.4" cx="382" cy="341" r="297.5" stroke="#8A8FB9"/>
<circle opacity="0.4" cx="381.5" cy="341.5" r="287" stroke="#8A8FB9"/>
<circle cx="674.5" cy="397.5" r="5.5" fill="#819FDE"/>
<circle cx="486.5" cy="572.5" r="5.5" fill="#819FDE"/>
<circle opacity="0.75" cx="382" cy="341" r="252.5" stroke="#CBD5FC"/>
<circle opacity="0.75" cx="388.5" cy="341.5" r="199" stroke="#CBD5FC"/>
<circle cx="635" cy="363" r="9" fill="#819FDE"/>
<circle cx="238" cy="97" r="9" fill="#819FDE"/>
<circle cx="398" cy="683" r="9" fill="#819FDE"/>
<circle cx="40" cy="332" r="9" fill="#819FDE"/>
<path d="M365 567H304V597.806H347.471L343.966 610L365 597.806V567Z" fill="#819FDE"/>
<path d="M573 115H551V127.179H566.678L565.414 132L573 127.179V115Z" fill="#819FDE"/>
<circle cx="381.5" cy="341.5" r="341" stroke="#CBD5FC"/>
<circle cx="283" cy="172" r="3" fill="#819FDE"/>
</svg>
